<?xml version="1.0" standalone="no"?>
<!DOCTYPE svg PUBLIC "-//W3C//DTD SVG 20010904//EN"
 "http://www.w3.org/TR/2001/REC-SVG-20010904/DTD/svg10.dtd">
<svg version="1.0" xmlns="http://www.w3.org/2000/svg"
 width="720.000000pt" height="720.000000pt" viewBox="0 0 720.000000 720.000000"
 preserveAspectRatio="xMidYMid meet">

<g transform="translate(0.000000,720.000000) scale(0.100000,-0.100000)"
fill="#000000" stroke="none">
<path d="M3400 5910 c-507 -39 -969 -245 -1339 -596 -684 -651 -865 -1677
-446 -2523 121 -242 242 -407 438 -598 429 -417 990 -633 1587 -610 537 21
1031 230 1419 602 350 336 573 770 647 1260 23 152 23 442 0 600 -104 719
-540 1324 -1187 1644 -343 170 -745 249 -1119 221z m485 -253 c215 -41 375
-96 565 -193 363 -187 649 -477 835 -849 137 -273 193 -494 202 -795 8 -270
-17 -454 -96 -689 -192 -575 -652 -1031 -1231 -1221 -490 -161 -1015 -120
-1480 116 -431 219 -762 588 -933 1040 -99 260 -142 568 -118 839 44 484 244
904 587 1235 298 288 654 462 1074 526 114 17 485 12 595 -9z"/>
<path d="M3308 4674 c-41 -22 -48 -43 -48 -148 l0 -95 -403 -3 -404 -3 -35
-27 c-71 -54 -68 -15 -68 -812 0 -793 -3 -760 66 -812 32 -25 48 -30 123 -34
78 -5 86 -7 86 -25 0 -19 7 -20 130 -20 129 0 130 0 127 23 l-3 22 721 0 721
0 -3 -22 c-3 -23 -2 -23 127 -23 123 0 130 1 130 20 0 18 8 20 86 25 75 4 91
9 123 34 69 52 66 19 66 812 0 797 3 758 -68 812 l-35 27 -404 3 -403 3 0 95
c0 166 3 164 -342 164 -213 -1 -268 -4 -290 -16z m498 -108 c8 -12 14 -44 14
-78 l0 -58 -220 0 -220 0 0 58 c0 58 11 84 40 95 8 4 95 5 193 4 164 -2 180
-4 193 -21z m-76 -701 l0 -145 140 0 140 0 0 -120 0 -120 -140 0 -139 0 -3
-142 -3 -143 -120 0 -120 0 -3 143 -3 142 -139 0 -140 0 0 120 0 120 140 0
140 0 0 145 0 145 125 0 125 0 0 -145z"/>
</g>
</svg>
